<svg aria-hidden="true" style="position: absolute; width: 0; height: 0; overflow: hidden;" version="1.1" xmlns="http://www.w3.org/2000/svg" xmlns:xlink="http://www.w3.org/1999/xlink">
<defs>
<symbol id="icon-bx-lock-alt" viewBox="0 0 32 32">
<path d="M16 2.667c-3.676 0-6.667 2.991-6.667 6.667v4h-1.333c-1.471 0-2.667 1.196-2.667 2.667v10.667c0 1.471 1.196 2.667 2.667 2.667h16c1.471 0 2.667-1.196 2.667-2.667v-10.667c0-1.471-1.196-2.667-2.667-2.667h-1.333v-4c0-3.676-2.991-6.667-6.667-6.667zM24 16l0.003 10.667h-16.003v-10.667h16zM12 13.333v-4c0-2.205 1.795-4 4-4s4 1.795 4 4v4h-8z"></path>
</symbol>
<symbol id="icon-bx-credit-card" viewBox="0 0 32 32">
<path d="M26.667 5.333h-21.333c-1.471 0-2.667 1.196-2.667 2.667v16c0 1.471 1.196 2.667 2.667 2.667h21.333c1.471 0 2.667-1.196 2.667-2.667v-16c0-1.471-1.196-2.667-2.667-2.667zM5.333 8h21.333v2.667h-21.333v-2.667zM5.333 24v-8h21.335l0.001 8h-21.336z"></path>
<path d="M8 18.667h8v2.667h-8z"></path>
</symbol>
<symbol id="icon-bx-user" viewBox="0 0 32 32">
<path d="M16 2.667c-3.682 0-6.667 2.985-6.667 6.667s2.985 6.667 6.667 6.667c3.682 0 6.667-2.985 6.667-6.667v0c0-3.682-2.985-6.667-6.667-6.667v0zM16 13.333c-2.209 0-4-1.791-4-4s1.791-4 4-4c2.209 0 4 1.791 4 4v0c0 2.209-1.791 4-4 4v0zM28 28v-1.333c0-5.155-4.179-9.333-9.333-9.333v0h-5.333c-5.155 0-9.333 4.179-9.333 9.333v0 1.333h2.667v-1.333c0-3.682 2.985-6.667 6.667-6.667v0h5.333c3.682 0 6.667 2.985 6.667 6.667v0 1.333z"></path>
</symbol>
</defs>
</svg>
